<svg width="27" height="49" viewBox="0 0 27 49" fill="none" xmlns="http://www.w3.org/2000/svg">
<path fill-rule="evenodd" clip-rule="evenodd" d="M23.9757 0.794176C24.0293 1.06715 24.0451 1.48151 24.0451 2.00549C24.0451 6.72474 23.9059 11.3877 21.7683 15.8939C21.3583 16.7583 20.9285 17.5777 20.4795 18.3579C20.4639 20.2843 20.5073 22.2072 20.5628 24.0992L20.5651 24.178C20.6151 25.8849 20.7235 29.5913 21.4738 32.9486C21.8555 34.6567 22.3914 36.2159 23.1307 37.3631C23.8637 38.5006 24.7428 39.1583 25.8216 39.2617C26.2339 39.3012 26.5361 39.6675 26.4966 40.0798C26.4571 40.4922 26.0908 40.7944 25.6784 40.7548C25.1775 40.7068 24.7165 40.5811 24.2927 40.3923C24.3197 40.5269 24.34 40.6597 24.3557 40.7814C24.4062 41.1728 24.4268 41.6029 24.4137 41.9613C24.4072 42.1383 24.3918 42.3204 24.3602 42.4808C24.3447 42.5599 24.321 42.656 24.282 42.752C24.2506 42.8293 24.1717 43.0041 23.994 43.1401C23.8935 43.217 23.7556 43.2854 23.5858 43.3028C23.4162 43.3202 23.2673 43.2815 23.1533 43.2269C22.9516 43.1303 22.8356 42.9747 22.7841 42.8992C22.6692 42.7305 22.5817 42.5093 22.508 42.2866C22.0146 40.7967 21.4668 39.3141 20.8769 37.8375C17.4476 34.1082 12.2592 32.6356 7.17383 33.7555C6.53842 33.8954 5.86986 34.0968 5.26658 34.2829C5.20742 34.3012 5.14816 34.3195 5.08905 34.3378C4.58117 34.4951 4.08486 34.6488 3.76285 34.7037C3.66977 34.7196 3.54358 34.7364 3.41369 34.7291L3.41246 34.729C3.34064 34.725 2.96923 34.7042 2.74135 34.362C2.47978 33.9693 2.67084 33.5846 2.71734 33.4984C2.78787 33.3676 2.8845 33.2575 2.96087 33.1777C3.2652 32.8599 3.90549 32.3628 4.92138 31.6324C8.53043 29.0372 11.6875 26.6965 14.394 23.9158C14.2451 23.6194 14.0962 23.3231 13.9472 23.0268C12.3782 19.9062 10.8114 16.7899 9.3872 13.6918C9.38402 13.6849 9.36315 13.6355 9.32701 13.55C9.21524 13.2853 8.95738 12.6749 8.62504 11.9062C8.17569 10.8669 7.57225 9.49556 6.94479 8.14299C6.31536 6.78618 5.6694 5.46483 5.13415 4.51772C4.96755 4.22294 4.81817 3.97612 4.68882 3.78088C4.66385 3.84483 4.63902 3.91528 4.61458 3.99244C4.4731 4.4391 4.37342 5.01674 4.30346 5.63988C4.23417 6.25698 4.19727 6.88701 4.17123 7.42904C4.16537 7.55087 4.15998 7.67122 4.15478 7.78743C4.13794 8.16362 4.12303 8.49653 4.1005 8.69646C2.64367 21.624 1.97871 34.7526 1.4995 47.7776C1.48427 48.1916 1.13637 48.5148 0.722435 48.4995C0.308502 48.4843 -0.0147122 48.1364 0.000516807 47.7225C0.480085 34.6876 1.14661 21.5136 2.60994 8.52849C2.62631 8.38324 2.63767 8.13065 2.65351 7.77867C2.65925 7.65106 2.66559 7.51039 2.67295 7.35704C2.69941 6.80654 2.73808 6.13822 2.81282 5.47252C2.88689 4.81285 2.99971 4.12322 3.1846 3.53949C3.35433 3.00366 3.64566 2.35107 4.21659 2.03177C4.6669 1.77993 5.07618 2.0198 5.21021 2.11316C5.37929 2.23094 5.52536 2.39322 5.64298 2.54063C5.88761 2.84724 6.16014 3.28445 6.44003 3.77971C7.00598 4.78113 7.67243 6.14708 8.3055 7.51175C8.94054 8.88066 9.54968 10.265 10.0019 11.3109C10.2281 11.8342 10.4153 12.2734 10.5471 12.5843C10.6859 12.9116 10.7517 13.0688 10.7501 13.0653C12.1641 16.1413 13.7093 19.2143 15.2703 22.3189C15.3414 22.4603 15.4126 22.6018 15.4837 22.7434C16.76 21.3032 17.9263 19.7324 18.9828 17.9471C19.0489 12.5997 19.5905 7.11035 21.6242 2.14969C21.6718 2.03368 21.7182 1.91952 21.7633 1.80877C21.8776 1.52784 21.9829 1.26889 22.0749 1.05738C22.1395 0.908541 22.2044 0.767277 22.2678 0.646877C22.3223 0.543564 22.4087 0.389955 22.529 0.266542C22.5866 0.207401 22.716 0.087234 22.9176 0.0303665C23.1735 -0.0418007 23.4401 0.0173636 23.6401 0.179133C23.7981 0.306905 23.8709 0.462887 23.9026 0.540843C23.9394 0.631297 23.9613 0.720834 23.9757 0.794176ZM22.5312 3.98289C22.4676 7.81868 22.1357 11.4166 20.5816 14.8855C20.7835 11.1339 21.3173 7.43181 22.5312 3.98289ZM18.986 20.7155C18.1175 21.9642 17.1899 23.1089 16.206 24.1818C16.7114 25.1904 17.216 26.2029 17.716 27.2207C18.3638 28.5391 19.0024 29.8637 19.6222 31.1951C19.1864 28.3561 19.1065 25.6167 19.0664 24.244C19.0654 24.2096 19.0644 24.176 19.0635 24.1433C19.0304 23.0178 19.001 21.8728 18.986 20.7155ZM19.5595 34.6963C18.5606 32.4152 17.4818 30.1457 16.3698 27.8821C15.9521 27.0321 15.5293 26.1819 15.1041 25.3317C12.5465 27.8893 9.6441 30.0738 6.43925 32.3876C6.57663 32.3533 6.71431 32.3207 6.85124 32.2906C11.3398 31.3021 15.9466 32.1576 19.5595 34.6963Z" fill="url(#paint0_linear_1287_2)"/>
<defs>
<linearGradient id="paint0_linear_1287_2" x1="13.25" y1="-24.25" x2="-27.565" y2="-1.94901" gradientUnits="userSpaceOnUse">
<stop stop-color="#FCABB1"/>
<stop offset="1" stop-color="#EFF2C0"/>
</linearGradient>
</defs>
</svg>
