<svg width="33" height="23" viewBox="0 0 33 23" fill="none" xmlns="http://www.w3.org/2000/svg">
<path fill-rule="evenodd" clip-rule="evenodd" d="M2.7138 0.5C1.50882 0.5 0.531982 1.48497 0.531982 2.7V20.3C0.531982 21.515 1.50882 22.5 2.7138 22.5H30.3502C31.5551 22.5 32.532 21.515 32.532 20.3V2.7C32.532 1.48497 31.5551 0.5 30.3502 0.5H2.7138ZM3.20829 1.96667H29.9526L19.828 11.7008C18.1698 13.295 15.5714 13.3247 13.8779 11.7688L3.20829 1.96667ZM22.4041 11.2506L31.0774 2.91171V19.9962L22.4041 11.2506ZM21.3511 12.263L30.0489 21.0333H3.01505L11.9718 12.0019L12.8982 12.853C15.1563 14.9275 18.6209 14.8879 20.8317 12.7623L21.3511 12.263ZM10.8955 11.0131L1.98653 19.9962V2.82836L10.8955 11.0131Z" fill="#F9FFFB"/>
</svg>
