<svg width="521" height="166" viewBox="0 0 521 166" fill="none" xmlns="http://www.w3.org/2000/svg">
<path fill-rule="evenodd" clip-rule="evenodd" d="M467.763 2.41916C467.742 1.61919 467.097 0.976366 466.297 0.958393C465.497 0.94042 464.824 1.55363 464.767 2.35186C464.106 11.6737 462.786 20.9369 462.104 30.2588C461.551 37.8176 461.304 45.6773 461.931 52.9704C459.317 51.9972 456.501 53.8221 454.76 55.6065C452.857 57.5565 451.139 60.3376 449.603 63.2302C447 68.1341 445.267 73.8367 442.016 78.3613C441.27 79.399 439.881 80.4266 438.12 81.2171C436.379 81.9986 434.423 82.4803 432.686 82.5389C429.578 82.6438 427.516 81.2219 428.304 77.9264C429.669 72.2184 431.031 67.7574 435.042 63.9086C436.194 62.8037 438.522 61.0672 438.313 59.1875C438.162 57.8275 436.84 57.4041 435.675 57.328C428.093 56.8326 420.195 56.817 413.734 61.4029C410.962 63.3707 410.392 66.2699 410.392 68.9181C410.393 72.9549 411.444 76.9661 410.186 80.9388C409.585 82.8377 407.966 80.0717 407.42 79.2724C404.579 75.1126 401.514 67.775 400.472 64.5246C400.622 62.3006 400.585 59.9212 400.063 57.9712C399.519 55.9449 398.292 53.9187 395.769 53.6041C392.714 53.2232 389.865 54.832 387.514 57.1156C385.133 59.4282 383.025 62.6507 381.386 66.0801C379.743 69.5169 378.529 73.2486 377.987 76.6342C377.456 79.947 377.521 83.2179 378.77 85.5142C379.452 86.7676 380.152 87.8232 380.882 88.6785C380.462 88.9914 380.086 89.212 379.544 89.071C376.028 88.1555 373.669 82.4994 372.245 79.6929C369.815 74.9044 367.371 69.6324 366.181 64.3553C368 41.9999 370.5 28.9999 373.355 12.029C373.472 10.8793 373.851 9.09402 372.443 8.58322C371.31 8.17215 370.544 9.13757 370.253 10.124C366.181 23.9324 365 37.4999 362.544 54.8156C360.287 52.9008 355.89 52.7961 353.324 54.0623C351.91 54.76 350.685 55.9473 349.604 57.3682C347.452 60.1967 345.572 64.353 343.793 68.8592C342.897 71.1308 342.011 73.5315 341.121 75.9436L341.099 76.0032C340.215 78.4015 339.326 80.8117 338.408 83.1506C336.549 87.8862 334.609 92.2252 332.435 95.4605C330.806 97.8825 327.072 99.4771 323.438 99.2917C321.663 99.2011 320.041 98.6866 318.803 97.7519C317.798 96.9934 316.989 95.9176 316.55 94.4284C321.613 91.3455 325.258 87.1607 328.168 82.0087C332.023 75.1831 335.534 69.5352 336.026 62.4687C336.179 60.2686 334.109 59.5996 332.343 60.1807C331.004 60.6214 329.302 61.6422 327.588 62.8777C324.13 65.371 320.058 69.1601 317.855 72.4056C313.858 78.2953 312.657 85.8783 313.237 92.8963C311.509 93.8851 309.399 95.0401 307.189 96.3578C300.411 100.4 291.989 104.995 283.705 108.976C287.389 106.207 291.159 103.547 294.685 100.574C299.999 96.0947 304.921 90.7954 307.362 83.8641C309.18 78.7019 310.454 71.0543 309.962 64.4751C309.717 61.189 309.022 58.0371 307.626 55.5772C306.201 53.0656 304.01 51.2354 300.9 50.8477C295.832 50.2159 291.506 51.8416 287.851 54.7345C289.161 51.0044 290.349 47.1967 291.421 43.3079C291.963 41.3449 292.631 36.7259 293.108 31.4963C293.587 26.2322 293.887 20.1875 293.652 15.3297C293.535 12.9124 293.282 10.7068 292.818 9.01666C292.588 8.1745 292.283 7.3795 291.862 6.73431C291.442 6.08988 290.814 5.46096 289.907 5.23744C288.981 5.00948 288.103 5.28493 287.369 5.74424C286.647 6.19608 285.946 6.8937 285.251 7.76891C283.857 9.52492 282.254 12.2992 280.393 16.2551C280.38 16.2837 280.367 16.3127 280.355 16.342C276.879 25.1332 275.265 33.9878 273.407 45.3541C271.81 55.1219 271.57 63.1006 271.33 71.0678L271.317 71.5226C271.198 75.4559 271.08 79.3991 270.779 83.5511C266.668 90.1329 261.989 96.4404 256.687 102.505C256.142 103.129 256.206 104.076 256.829 104.622C257.453 105.167 258.401 105.103 258.946 104.479C262.962 99.8858 266.629 95.1526 269.971 90.267C269.509 92.0461 269.115 93.6662 268.782 95.0581C267.674 99.6902 266.872 104.333 265.64 108.949L265.639 108.951C264.781 112.166 263.922 115.384 263.179 118.493C262.821 119.99 264.148 121.056 265.519 121.109C266.723 121.156 268.021 120.532 268.321 119.277C268.401 118.942 268.477 118.611 268.549 118.282C268.8 118.516 269.19 118.472 269.506 118.364C281.839 113.816 297.54 105.605 308.726 98.9345C310.713 97.7494 312.338 96.8548 313.903 95.9697C314.56 97.7292 315.637 99.121 316.995 100.146C318.813 101.518 321.051 102.174 323.286 102.288C327.671 102.512 332.558 100.654 334.924 97.1342C337.293 93.6105 339.33 89.012 341.2 84.2468C341.663 83.0683 342.118 81.8733 342.566 80.6757C342.15 85.0928 343.699 89.1573 346.657 92.4793C348.639 94.706 351.61 96.3594 354.544 94.8777C356.833 93.7223 358.53 91.5344 359.827 89.0374C361.136 86.5191 362.126 83.514 362.911 80.4844C363.806 77.0346 364.457 73.4602 364.996 70.4423C366.138 73.552 367.74 77.4461 369.57 81.0507C371.286 84.4318 373.265 87.6863 375.318 89.7507C376.339 90.7775 377.504 91.6399 378.788 91.9742C379.937 92.2732 381.079 92.1209 382.111 91.4889C385.171 92.0823 387.785 91.6368 389.987 90.3431C396.835 86.3185 398.233 77.8182 399.628 70.7202C401.091 74.1702 403.038 78.1759 404.943 80.9645C405.712 82.0913 406.534 83.1079 407.374 83.8091C408.153 84.4586 409.337 85.1539 410.659 84.7454C411.962 84.3429 412.65 83.0947 413.046 81.8444C414.015 78.7842 413.92 75.444 413.615 72.2884C413.5 71.1068 413.392 69.9906 413.392 68.9178C413.392 66.6608 413.869 64.9862 415.471 63.8492C421.271 59.7321 427.732 60.2626 434.419 60.2949C434.054 60.6803 433.577 61.1568 432.965 61.744C428.276 66.2431 426.762 71.4731 425.386 77.2287C424.722 80.0051 425.227 82.2825 426.882 83.7854C428.428 85.1904 430.66 85.609 432.787 85.5372C434.959 85.4639 437.296 84.8752 439.348 83.9541C441.381 83.0419 443.286 81.7347 444.452 80.1118C447.625 75.6953 449.373 70.1984 451.86 65.3872C451.18 67.2615 450.614 69.2039 450.213 71.0968C449.782 73.1328 449.534 75.1498 449.557 76.9897C449.581 78.8125 449.871 80.5668 450.606 82.0002C451.368 83.4851 452.606 84.6091 454.374 85.0321C456.073 85.4385 458.073 85.1529 460.339 84.2717C461.714 83.7373 462.664 82.516 463.351 81.2578C463.953 81.9265 464.73 82.4398 465.679 82.7971C468.051 83.691 471.591 83.6415 476.651 82.7482C482.848 81.6541 490.492 76.6668 498.129 70.0809C505.834 63.4363 513.765 54.957 520.558 46.5381C521.078 45.8933 520.977 44.949 520.333 44.4287C519.688 43.9085 518.744 44.0095 518.223 44.6542C511.516 52.9667 503.709 61.3076 496.17 67.809C488.563 74.3691 481.456 78.8535 476.13 79.7939C471.118 80.6786 468.289 80.5746 466.736 79.9897C466.019 79.7194 465.618 79.3618 465.365 78.9666C465.125 78.5924 464.957 78.0885 464.879 77.3959C466.159 73.0749 466.98 66.9576 467.503 60.1222C468.04 53.1063 468.269 45.2305 468.33 37.5658C468.452 22.2387 467.899 7.67162 467.763 2.41916ZM459.766 57.1382C458.936 58.0219 458.052 59.2894 457.19 60.8377C455.469 63.9306 453.947 67.9424 453.148 71.7184C452.748 73.6037 452.537 75.3919 452.557 76.9513C452.577 78.5277 452.833 79.7669 453.276 80.6311C453.693 81.4438 454.266 81.9216 455.072 82.1145C456.966 82.5674 459.447 81.8969 460.498 80.1992C462.383 77.154 462.596 73.9296 462.596 69.7784C462.596 69.2555 462.631 68.4642 462.672 67.5216C462.891 62.5541 463.294 53.3835 459.766 57.1382ZM464.937 52.9092C465.172 47.9243 465.289 42.694 465.33 37.5419C465.357 34.1513 465.351 30.7987 465.324 27.5766C464.621 35.9902 464.193 44.4842 464.937 52.9092ZM395.398 56.5811C393.667 56.3652 391.683 57.2477 389.604 59.2675C387.554 61.2583 385.633 64.1513 384.093 67.3739C382.556 70.5889 381.44 74.0455 380.949 77.1087C380.447 80.2446 380.645 82.6831 381.406 84.0809C382.365 85.8453 384.175 89.0261 386.674 88.2439C387.492 87.9876 388.428 87.3562 389.506 86.3334C394.489 81.6041 396.562 74.0291 396.493 67.3051C396.475 65.5018 396.251 63.6714 396.086 62.3239C396.075 62.229 396.06 62.1307 396.045 62.03C396.036 61.9696 396.026 61.9083 396.017 61.8463C395.913 61.1871 395.797 60.4496 396.039 59.8609C396.24 59.3725 396.689 59.0125 397.212 58.931C396.977 57.9673 396.532 56.7225 395.398 56.5811ZM360.007 79.7313C360.765 76.808 361.347 73.7752 361.846 71.014C361.945 70.4655 362.041 69.9251 362.135 69.3971L362.136 69.3943C363.785 60.1345 354.425 50.9601 350.655 62.7831C350.334 63.7906 349.937 64.9409 349.505 66.1916C348.678 68.589 347.723 71.3551 346.932 74.1895C346.338 76.317 345.861 78.403 345.627 80.2783C345.391 82.1773 345.423 83.7356 345.746 84.8686C347.554 91.2126 353.355 94.9885 357.165 87.6543C358.325 85.4227 359.247 82.663 360.007 79.7313ZM316.193 91.1073C317.596 90.1874 318.854 89.2216 320.069 88.0314C321.86 86.2761 323.608 83.9809 325.556 80.5333C325.834 80.0414 326.107 79.5596 326.375 79.0867C329.767 73.1084 332.35 68.5558 332.953 63.152C328.051 65.1453 323.234 69.8217 320.337 74.0903C316.573 79.6364 316.231 84.9607 316.193 91.1073ZM292.752 98.2806C297.907 93.9347 302.353 89.0558 304.533 82.8676C306.227 78.0558 307.428 70.8233 306.971 64.6986C306.742 61.6327 306.106 58.9766 305.017 57.0579C303.958 55.1908 302.51 54.0717 300.529 53.8246C294.394 53.0598 289.37 56.3124 285.182 61.8067C282.499 68.4413 279.395 74.8226 275.831 80.9724C274.654 84.4825 273.693 87.8798 272.918 90.8521C272.023 96.3379 270.544 101.61 270.061 107.154C269.838 109.705 269.61 112.318 269.149 115.142C277.594 110.369 285.347 104.523 292.752 98.2806ZM282.548 60.3176C284.849 54.5854 286.834 48.655 288.529 42.5101C288.992 40.8344 289.643 36.4588 290.12 31.2241C290.594 26.0238 290.881 20.1345 290.655 15.4749C290.542 13.1334 290.302 11.1844 289.925 9.80979C289.383 7.83032 288.723 8.22144 287.601 9.63429C286.429 11.1108 284.949 13.6227 283.128 17.4891C279.797 25.9289 278.225 34.4761 276.368 45.8381C274.801 55.4247 274.574 63.0588 274.34 70.9012V70.9023V70.9043L274.319 71.6222C274.269 73.3015 274.216 74.9933 274.149 76.7187C276.284 70.9418 279.034 65.0311 282.548 60.3176Z" fill="#EDF2EF"/>
<path fill-rule="evenodd" clip-rule="evenodd" d="M464.937 52.9092C465.172 47.9243 465.289 42.694 465.33 37.5419C465.357 34.1513 465.351 30.7987 465.324 27.5766C464.621 35.9902 464.193 44.4842 464.937 52.9092ZM340.31 20.4193C341.076 20.7352 341.441 21.6122 341.125 22.378C338.535 28.6564 334.405 34.3604 330.326 39.9937C326.097 45.8345 321.923 51.5993 319.577 57.8496C319.286 58.6252 318.421 59.018 317.646 58.7269C316.87 58.4358 316.477 57.571 316.768 56.7954C319.169 50.4 323.352 44.6345 327.582 38.8053C331.641 33.2113 335.742 27.5585 338.352 21.2338C338.668 20.468 339.545 20.1033 340.31 20.4193ZM32.5951 41.0771C21.2412 81.2656 12.1487 123.048 3.85985 163.978C3.69542 164.79 2.90391 165.315 2.09197 165.15C1.28002 164.986 0.755111 164.194 0.919542 163.382C9.22361 122.378 18.3332 80.5242 29.7081 40.2615C31.806 32.8361 36.3487 27.614 39.8543 37.0861C41.0382 40.2851 42.3481 44.6133 43.5649 48.9405C44.6641 52.8496 45.7472 56.7597 46.8299 60.6683C50.1083 72.5032 53.3827 84.3239 57.0871 96.0589C57.3348 96.8437 57.5827 97.629 57.8306 98.4148C62.7169 94.5556 67.3048 90.1979 71.637 85.0341C74.4093 69.3095 78.6402 53.4223 87.0583 39.8205C87.3014 39.4277 87.5451 38.9464 87.8037 38.4357C88.6583 36.7478 89.675 34.7397 91.366 34.5522C93.9663 34.264 93.315 37.8706 92.9978 39.6264C92.9682 39.7904 92.9415 39.9384 92.9206 40.0654C90.6353 53.9794 87.9818 67.5062 79.5611 79.5981C77.8988 81.9851 76.1974 84.2256 74.4545 86.3381C71.968 100.685 69.4462 115.602 70.3004 130.187C70.6083 135.445 71.4513 140.401 73.1402 144.259C74.8193 148.094 77.2545 150.683 80.7082 151.593C82.9588 152.187 85.2079 151.653 87.4615 150.28C88.5054 149.645 89.5285 148.841 90.5205 147.918C88.6343 147.976 86.8077 147.231 85.7683 145.591C84.1515 143.039 84.5358 139.538 85 136.711C85.6193 132.941 87.1402 127.225 89.8318 122.492C92.4914 117.815 96.5931 113.62 102.47 114.02C103.629 114.098 104.605 114.561 105.331 115.36C106.024 116.123 106.401 117.093 106.602 118.068C106.998 119.996 106.793 122.398 106.38 124.688C105.55 129.288 103.729 134.193 102.942 135.65C102.444 136.572 101.853 137.636 101.179 138.782C105.453 133.728 107.125 126.529 108.488 118.95C108.481 118.875 108.472 118.789 108.463 118.693L108.456 118.626C108.195 116.026 107.29 106.99 110.322 106.292C113.528 105.555 112.337 114.378 112.07 115.904C112.015 116.219 111.96 116.535 111.904 116.852L111.903 116.859C111.776 117.589 111.647 118.327 111.515 119.064C112.135 124.855 114.048 130.669 117.264 134.535C118.271 133.832 118.953 132.537 119.535 131.431L119.536 131.429L119.603 131.303L119.678 131.16C119.705 131.11 119.731 131.06 119.757 131.012C122.228 126.409 124.337 121.6 126.443 116.796C127.683 113.969 128.922 111.144 130.233 108.364C131.529 105.617 132.982 102.917 134.641 100.732C136.131 98.7685 139.622 94.7537 142.546 96.1403C144.18 96.9147 144.816 98.9976 145.243 100.596C145.932 103.179 146.361 106.712 146.637 110.259C147.056 115.646 147.137 121.352 147.167 124.197L147.173 124.17L147.186 124.111C148.089 119.968 149.017 115.71 150.529 111.611C152.342 106.696 154.38 101.445 157.517 97.1911C158.349 96.0637 159.595 94.656 161.166 94.9745C163.059 95.3581 163.402 97.735 163.532 99.3133C163.734 101.769 163.792 104.234 163.851 106.701C163.91 109.203 163.969 111.706 164.178 114.201C164.404 116.889 164.72 119.123 165.132 120.447C166.505 118.184 167.87 115.883 169.24 113.575C170.714 111.09 172.064 108.449 173.417 105.801C175.362 101.996 177.313 98.1784 179.649 94.795C180.376 93.7418 181.714 91.8874 183.229 92.1357C184.387 92.3257 184.704 93.5452 184.828 94.5503C185.125 96.9699 184.982 99.552 184.837 102.152C184.565 107.028 184.29 111.967 186.916 116.016C194.552 110.407 200.633 95.5412 203.222 86.7743C203.529 85.7364 204.115 84.543 205.368 84.5225C206.396 84.5057 207.046 85.3339 207.417 86.1889C207.811 87.0953 208.113 88.4307 208.226 88.9303C210.101 97.2246 211.35 105.459 209.956 113.949C209.765 115.111 209.493 116.521 209.119 117.916C212.86 118.517 216.841 118.911 220.211 118.41C225.592 117.609 229.087 112.888 228.389 107.461C228.228 106.207 227.647 105.14 226.031 104.29C225.298 103.904 225.017 102.997 225.403 102.264C225.789 101.53 226.696 101.249 227.429 101.635C229.912 102.942 231.08 104.858 231.365 107.078C232.265 114.074 227.628 120.339 220.653 121.377C216.665 121.971 212.097 121.453 208.148 120.797C206.317 125.069 202.073 125.445 199.248 121.51C198.765 120.836 198.35 120.103 197.937 119.374C197.726 119.001 197.515 118.628 197.295 118.265C196.4 117.883 195.389 117.368 194.746 116.731C193.421 115.417 193.927 113.62 195.498 112.801C197.061 111.986 198.29 114.077 199.062 115.392C199.16 115.558 199.251 115.712 199.333 115.846C201.112 116.504 202.998 116.836 204.87 117.167C205.298 117.242 205.725 117.317 206.15 117.396C206.522 116.064 206.799 114.658 206.996 113.462C208.313 105.443 207.354 97.8938 205.369 89.888C202.17 99.0768 195.735 109.716 190.113 116.985C189.291 118.048 188.147 119.18 186.695 119.11C180.737 118.824 181.397 108.167 181.826 101.234C181.942 99.3515 182.042 97.7438 181.987 96.6924C179.812 99.9713 177.956 103.577 176.102 107.179C174.727 109.851 173.353 112.521 171.851 115.053C171.4 115.813 170.964 116.67 170.515 117.555C169.405 119.738 168.213 122.084 166.514 123.517C166.104 123.863 165.501 124.192 164.756 124.119C164.018 124.046 163.504 123.612 163.192 123.233C161.638 121.344 161.441 118.268 161.279 115.741L161.279 115.74L161.279 115.737C161.25 115.288 161.223 114.857 161.189 114.452C161.014 112.376 161.016 110.248 161.018 108.114C161.021 104.836 161.024 101.543 160.388 98.4008C159.57 99.3299 158.947 100.435 158.352 101.513C156.116 105.569 153.839 111.305 153.344 112.649C151.863 116.662 150.956 120.833 150.05 125.005C149.276 128.562 148.503 132.121 147.373 135.583C147.168 136.212 146.852 136.842 146.19 137.087C143.818 137.965 143.944 134.475 143.998 132.974C144.001 132.887 144.004 132.807 144.006 132.735C144.228 125.302 144.223 117.913 143.646 110.491C143.372 106.977 142.958 103.673 142.344 101.37L142.304 101.219C142.1 100.447 141.86 99.542 141.336 98.9324C139.894 99.4377 138.459 100.663 137.03 102.546C135.559 104.485 134.21 106.965 132.946 109.644C131.63 112.435 130.385 115.271 129.139 118.11C127.016 122.948 124.89 127.793 122.4 132.431C121.56 133.997 120.584 135.573 119.542 136.538C119.027 137.016 118.317 137.514 117.445 137.601C116.448 137.701 115.617 137.238 115.027 136.537C112.728 133.804 111.064 130.321 109.965 126.619C107.949 134.741 104.448 142.499 95.9987 146.389C93.9735 148.896 91.6224 151.259 89.0218 152.843C86.3027 154.498 83.2112 155.356 79.9435 154.494C77.9597 153.971 76.2728 153.038 74.8427 151.8C75.3591 153.747 75.0666 156.06 74.6739 158.001C74.4275 159.219 73.9244 161.058 72.3506 160.961C70.8994 160.873 70.5334 159.227 70.3478 158.069C69.5956 153.377 68.6743 148.68 67.6229 143.98C59.1199 131.021 44.1222 123.979 28.1829 124.818C26.6009 124.901 25.0215 125.135 23.4424 125.368C21.5088 125.654 19.5755 125.94 17.6382 125.95C16.7839 125.954 15.8629 125.748 15.4699 124.886C15.0047 123.866 15.6855 122.974 16.4653 122.392C17.4562 121.653 19.5297 120.53 22.9139 118.864C35.0779 112.876 45.7473 107.43 55.2962 100.353C54.9403 99.2239 54.5838 98.0947 54.2274 96.9659C50.513 85.1992 47.2294 73.3466 43.9419 61.4796C42.8592 57.5713 41.776 53.6615 40.6769 49.7526C40.4263 48.8612 40.1582 47.8027 39.8728 46.6756C38.1105 39.7171 35.6851 30.1401 32.5951 41.0771ZM56.2474 103.376C46.9161 110.158 36.6451 115.315 26.3751 120.473C25.1187 121.104 23.8623 121.734 22.6077 122.368C38.5203 120.266 54.9407 124.739 65.9524 136.924C63.1627 125.726 59.7508 114.536 56.2474 103.376ZM67.2918 130.122C64.7236 120.526 61.7776 110.962 58.7929 101.47C62.9604 98.251 66.9259 94.6918 70.7075 90.6195L70.694 90.7051C68.6507 103.686 66.5612 116.96 67.2918 130.122ZM205.093 120.251C204.686 120.175 204.294 120.1 203.914 120.027C203.076 119.868 202.3 119.72 201.58 119.593C201.916 120.14 203.121 122.036 203.986 121.637C204.501 121.4 204.826 120.77 205.079 120.278L205.093 120.251ZM100.302 134.224C100.908 133.103 102.641 128.513 103.428 124.156C105.383 113.32 96.2138 117.338 92.4397 123.975C89.9812 128.298 88.5445 133.641 87.9604 137.197L87.9484 137.27C87.6083 139.338 86.7643 144.47 89.7671 144.888C94.7923 145.587 97.2373 140.509 99.2 136.432C99.5804 135.642 99.9426 134.89 100.302 134.224ZM75.6553 79.9058C84.0262 68.4742 87.3677 55.0645 89.6765 41.2905L89.6093 41.3992C82.4717 52.932 78.4025 66.2604 75.6553 79.9058ZM177.491 69.1676C178.396 68.6393 179.52 68.2915 180.692 68.4841C181.557 68.6261 182.237 69.0972 182.661 69.787C183.048 70.4165 183.161 71.1271 183.173 71.7301C183.196 72.9332 182.826 74.2513 182.411 75.2366C182.2 75.7392 181.949 76.2232 181.677 76.6116C181.29 77.1645 180.754 77.6468 180.05 77.7033C179.73 77.7291 179.387 77.6644 179.074 77.4814C178.492 77.1415 178.219 76.5072 178.158 75.8584C178.04 74.6003 178.244 72.1063 180.11 72.513C180.168 72.1736 180.218 71.7971 180.137 71.4562L180.132 71.4352C179.85 71.4104 179.463 71.4902 179.004 71.7582C178.511 72.0462 178.04 72.4951 177.699 73.0061C177.352 73.5272 177.209 74.0052 177.21 74.3409C177.21 74.7598 177.466 75.0704 177.716 75.3745C178.099 75.8409 178.47 76.2919 177.889 77.0944C177.404 77.7655 176.466 77.9158 175.795 77.4302C174.7 76.638 174.211 75.506 174.21 74.3452C174.208 73.25 174.632 72.1982 175.203 71.342C175.781 70.4758 176.579 69.7 177.491 69.1676Z" fill="#EDF2EF"/>
</svg>
