<svg width="504" height="504" viewBox="0 0 504 504" fill="none" xmlns="http://www.w3.org/2000/svg">
<path fill-rule="evenodd" clip-rule="evenodd" d="M251.92 -9.76585e-06C183.5 -9.76585e-06 174.92 0.28999 148.05 1.51999C121.24 2.73999 102.92 6.99999 86.9 13.23C70.33 19.67 56.28 28.28 42.28 42.29C28.27 56.3 19.66 70.34 13.22 86.91C7 102.93 2.74 121.24 1.52 148.05C0.29 174.92 0 183.5 0 251.92C0 320.34 0.29 328.92 1.52 355.79C2.74 382.6 7 400.92 13.23 416.94C19.67 433.51 28.28 447.56 42.29 461.56C56.3 475.57 70.34 484.18 86.91 490.62C102.93 496.85 121.25 501.11 148.06 502.33C174.93 503.56 183.51 503.85 251.93 503.85C320.35 503.85 328.93 503.56 355.8 502.33C382.61 501.11 400.93 496.85 416.95 490.62C433.52 484.18 447.57 475.57 461.57 461.56C475.58 447.55 484.19 433.51 490.63 416.94C496.86 400.92 501.12 382.6 502.34 355.79C503.57 328.92 503.86 320.34 503.86 251.92C503.86 183.5 503.57 174.92 502.34 148.05C501.12 121.24 496.86 102.92 490.63 86.9C484.19 70.33 475.58 56.28 461.57 42.28C447.56 28.27 433.52 19.66 416.95 13.22C400.93 6.98999 382.61 2.72999 355.8 1.50999C328.93 0.27999 320.35 -0.0100098 251.93 -0.0100098L251.92 -9.76585e-06ZM122.56 251.92C122.56 180.48 180.47 122.56 251.92 122.56C323.36 122.56 381.28 180.48 381.28 251.92C381.28 323.36 323.36 381.28 251.92 381.28C180.48 381.28 122.56 323.36 122.56 251.92ZM386.4 147.67C403.096 147.67 416.63 134.136 416.63 117.44C416.63 100.744 403.096 87.21 386.4 87.21C369.704 87.21 356.17 100.744 356.17 117.44C356.17 134.136 369.704 147.67 386.4 147.67Z" fill="#EDF2EF"/>
<path d="M251.92 335.9C205.54 335.9 167.95 298.3 167.95 251.93C167.95 205.56 205.55 167.96 251.92 167.96C298.29 167.96 335.89 205.56 335.89 251.93C335.89 298.3 298.29 335.9 251.92 335.9Z" fill="#EDF2EF"/>
</svg>
