<svg width="24" height="25" viewBox="0 0 24 25" fill="none" xmlns="http://www.w3.org/2000/svg">
<path d="M6.75 3.34091C6.75 5.18604 5.23896 6.68182 3.375 6.68182C1.51104 6.68182 0 5.18604 0 3.34091C0 1.49578 1.51104 0 3.375 0C5.23896 0 6.75 1.49578 6.75 3.34091Z" fill="#EDF2EF"/>
<path d="M0.75 8.83706C0.75 8.46681 1.0578 8.16667 1.4375 8.16667H5.3125C5.6922 8.16667 6 8.46681 6 8.83706V23.8296C6 24.1999 5.6922 24.5 5.3125 24.5H1.4375C1.0578 24.5 0.75 24.1999 0.75 23.8296V8.83706Z" fill="#EDF2EF"/>
<path d="M8.25 23.8986V9.07411C8.25 8.74197 8.51914 8.47271 8.85115 8.47271H12.7285C13.0605 8.47271 13.3297 8.74197 13.3297 9.07411V10.3972C13.3297 10.3972 14.7724 8.03998 18.229 8.17201C24 8.39246 24 13.9455 24 14.4567V23.9012C24 24.2334 23.7309 24.5 23.3989 24.5H19.3411C19.0091 24.5 18.74 24.2307 18.74 23.8986V14.9979C18.74 14.9979 18.5897 12.5622 16.3053 12.5622C13.8707 12.5622 13.3297 15.158 13.3297 16.8021V23.9013C13.3297 24.2334 13.0605 24.5 12.7285 24.5H8.85115C8.51914 24.5 8.25 24.2307 8.25 23.8986Z" fill="#EDF2EF"/>
</svg>
