<svg width="38" height="38" viewBox="0 0 38 38" fill="none" xmlns="http://www.w3.org/2000/svg">
<path fill-rule="evenodd" clip-rule="evenodd" d="M0 6.5988C0 2.95439 2.95438 0 6.5988 0H31.4012C35.0456 0 38 2.95438 38 6.5988V30.5669C38 34.2113 35.0456 37.1657 31.4012 37.1657H6.5988C2.95439 37.1657 0 34.2113 0 30.5669V6.5988ZM32.464 20.7823H24.6516C24.6516 22.4889 26.6616 23.6267 28.3302 23.5887C29.6652 23.5584 30.9596 23.1463 31.44 22.944V25.7883C31.1366 25.94 29.1646 26.5847 26.965 26.6227C24.7654 26.6606 22.7933 25.4849 21.7314 23.475C20.8819 21.867 21.1246 19.0631 21.3522 17.8622C21.5924 16.4211 23.0588 13.5009 27.0029 13.3492C30.947 13.1975 32.287 16.2946 32.464 17.8622C32.6409 19.4297 32.464 20.7823 32.464 20.7823ZM8.11666 26.2055H4.62764C6.42272 21.0605 9.9649 10.7648 10.0129 10.429C10.0508 10.1636 10.0508 9.78434 10.0508 9.63264H14.4879L20.4041 26.2055H16.6875L15.2843 22.2993H9.40608L8.11666 26.2055Z" fill="#F9FFFB"/>
<path d="M29.2025 18.431H24.6516C24.7148 17.6599 25.266 16.1177 26.965 16.1177C28.664 16.1177 29.1646 17.6599 29.2025 18.431Z" fill="#F9FFFB"/>
<path d="M14.3741 18.9999H10.2783L12.2883 12.5528L14.3741 18.9999Z" fill="#F9FFFB"/>
</svg>
