<svg width="33" height="26" viewBox="0 0 33 26" fill="none" xmlns="http://www.w3.org/2000/svg">
<path d="M17.2036 14.6185C17.2644 13.5518 17.8041 12.6108 18.6165 11.9446C19.414 11.2889 20.4881 10.8897 21.6581 10.8897C22.8294 10.891 23.9021 11.2902 24.6996 11.9446C25.512 12.6121 26.0518 13.5518 26.1138 14.6185C26.1759 15.7153 25.7212 16.7349 24.9236 17.49C24.1113 18.2583 22.9535 18.7413 21.6581 18.7413C20.3626 18.7413 19.2035 18.2583 18.3911 17.49C17.595 16.7349 17.1416 15.7153 17.2036 14.6185Z" fill="#EDF2EF"/>
<path d="M10.107 16.778C10.1151 17.1943 10.2528 18.0057 10.4579 18.6405C10.891 19.982 11.6251 21.2241 12.648 22.3183C13.6978 23.4425 14.9879 24.3456 16.4803 24.9856C18.0497 25.6597 19.7486 26.0039 21.5123 26C23.276 25.9974 24.9749 25.6479 26.5429 24.9686C28.034 24.3208 29.3241 23.4151 30.3726 22.2882C31.3941 21.1888 32.1268 19.9454 32.56 18.6038C32.7759 17.935 32.9149 17.2453 32.9715 16.5477C33.0255 15.8671 33.0026 15.1813 32.9041 14.5046C32.7097 13.1775 32.2361 11.9328 31.5074 10.7981C30.8395 9.75625 29.9812 8.84269 28.9597 8.07311L28.9611 8.0718L18.6542 0.396901C18.6461 0.390357 18.6367 0.382504 18.6286 0.37596C17.9498 -0.126625 16.8136 -0.125317 16.0701 0.379887C15.3171 0.890325 15.2321 1.73451 15.9001 2.2672L15.8974 2.26851L20.1966 5.66096L7.08973 5.67405H7.07219C5.98995 5.67536 4.94821 6.3651 4.74174 7.23547C4.53124 8.12284 5.26667 8.8584 6.39343 8.86363L6.39208 8.86756L13.0353 8.85447L1.18063 17.6798C1.16579 17.6916 1.1496 17.7021 1.1361 17.7125C0.0187865 18.5423 -0.342857 19.9244 0.360189 20.7987C1.07538 21.6874 2.59482 21.6887 3.72563 20.8027L10.1947 15.6682C10.1947 15.6682 10.1003 16.3618 10.107 16.778ZM26.7319 19.0986C25.3986 20.4179 23.5337 21.1639 21.5137 21.1665C19.4922 21.1704 17.626 20.4296 16.2928 19.1143C15.641 18.473 15.1633 17.7374 14.8664 16.9508C14.5763 16.1786 14.4657 15.3527 14.5399 14.5347C14.6114 13.7364 14.8543 12.9602 15.2551 12.2587C15.6451 11.5729 16.1808 10.9538 16.842 10.4303C18.1374 9.40548 19.7864 8.85185 21.5137 8.84923C23.2409 8.84661 24.8886 9.39762 26.1853 10.4172C26.8452 10.9394 27.3809 11.5559 27.7696 12.2404C28.1703 12.9419 28.4146 13.7167 28.4861 14.5151C28.5603 15.3344 28.4483 16.159 28.1582 16.9325C27.8613 17.7178 27.3823 18.4546 26.7319 19.0986Z" fill="#EDF2EF"/>
<path fill-rule="evenodd" clip-rule="evenodd" d="M17.2036 14.6185C17.2644 13.5518 17.8041 12.6108 18.6165 11.9446C19.414 11.2889 20.4881 10.8897 21.6581 10.8897C22.8294 10.891 23.9021 11.2902 24.6996 11.9446C25.512 12.6121 26.0518 13.5518 26.1138 14.6185C26.1759 15.7153 25.7212 16.7349 24.9236 17.49C24.1113 18.2583 22.9535 18.7413 21.6581 18.7413C20.3626 18.7413 19.2035 18.2583 18.3911 17.49C17.595 16.7349 17.1416 15.7153 17.2036 14.6185Z" fill="#EDF2EF"/>
</svg>
