<svg width="28" height="27" viewBox="0 0 28 27" fill="none" xmlns="http://www.w3.org/2000/svg">
<path d="M0.266397 9.4153C0.266397 9.4153 -0.415579 8.93615 0.402792 8.29634L2.30948 6.63452C2.30948 6.63452 2.85506 6.07504 3.4319 6.5625L21.0269 19.5469V25.7732C21.0269 25.7732 21.0183 26.7509 19.7311 26.6429L0.266397 9.4153Z" fill="#EDF2EF"/>
<path d="M4.80153 13.4286L0.266394 17.4475C0.266394 17.4475 -0.199622 17.7854 0.266394 18.3892L2.37199 20.2559C2.37199 20.2559 2.87211 20.7794 3.61092 20.1839L8.41884 16.6304L4.80153 13.4286Z" fill="#E5E8E4"/>
<path d="M12.7636 13.4618L21.0809 7.27155L21.0269 1.07848C21.0269 1.07848 20.6717 -0.273141 19.4867 0.430365L8.41885 10.249L12.7636 13.4618Z" fill="#E5E8E4"/>
<path d="M19.7311 26.6512C20.2142 27.1331 20.7996 26.9753 20.7996 26.9753L27.2812 23.8621C28.1109 23.3109 27.9944 22.6268 27.9944 22.6268V4.03653C27.9944 3.21947 27.1362 2.93696 27.1362 2.93696L21.5185 0.297424C20.2909 -0.442088 19.4867 0.430365 19.4867 0.430365C19.4867 0.430365 20.5211 -0.295299 21.0269 1.07848L21.0269 25.6597C21.0269 25.8286 20.9899 25.9948 20.9161 26.1444C20.7683 26.4352 20.4472 26.7066 19.6771 26.593L19.7311 26.6512Z" fill="#F9FFFB"/>
</svg>
