<svg width="27" height="49" viewBox="0 0 27 49" fill="none" xmlns="http://www.w3.org/2000/svg">
<path fill-rule="evenodd" clip-rule="evenodd" d="M24.2257 1.04415C24.2793 1.31712 24.2951 1.73148 24.2951 2.25545C24.2951 6.97471 24.1559 11.6377 22.0183 16.1439C21.6083 17.0083 21.1785 17.8277 20.7295 18.6079C20.7139 20.5342 20.7573 22.4571 20.8128 24.3492L20.8151 24.4279C20.8651 26.1349 20.9735 29.8412 21.7238 33.1986C22.1055 34.9066 22.6414 36.4659 23.3807 37.6131C24.1137 38.7506 24.9928 39.4082 26.0716 39.5117C26.4839 39.5512 26.7861 39.9175 26.7466 40.3298C26.7071 40.7421 26.3408 41.0443 25.9284 41.0048C25.4275 40.9568 24.9665 40.8311 24.5427 40.6423C24.5697 40.7769 24.59 40.9097 24.6057 41.0314C24.6562 41.4227 24.6768 41.8528 24.6637 42.2113C24.6572 42.3883 24.6418 42.5703 24.6102 42.7307C24.5947 42.8099 24.571 42.9059 24.532 43.002C24.5006 43.0793 24.4217 43.2541 24.244 43.3901C24.1435 43.467 24.0056 43.5354 23.8358 43.5528C23.6662 43.5702 23.5173 43.5314 23.4033 43.4768C23.2016 43.3803 23.0856 43.2247 23.0341 43.1492C22.9192 42.9805 22.8317 42.7593 22.758 42.5366C22.2646 41.0467 21.7168 39.5641 21.1269 38.0874C17.6976 34.3582 12.5092 32.8856 7.42383 34.0054C6.78842 34.1454 6.11986 34.3468 5.51658 34.5329C5.45742 34.5511 5.39816 34.5695 5.33905 34.5878C4.83117 34.7451 4.33486 34.8988 4.01285 34.9537C3.91977 34.9696 3.79358 34.9863 3.66369 34.979L3.66246 34.979C3.59064 34.9749 3.21923 34.9541 2.99135 34.612C2.72978 34.2193 2.92084 33.8346 2.96734 33.7483C3.03787 33.6176 3.1345 33.5075 3.21087 33.4277C3.5152 33.1099 4.15549 32.6128 5.17138 31.8823C8.78043 29.2872 11.9375 26.9464 14.644 24.1658C14.4951 23.8694 14.3462 23.5731 14.1972 23.2768C12.6282 20.1561 11.0614 17.0399 9.6372 13.9418C9.63402 13.9349 9.61315 13.8855 9.57701 13.7999C9.46524 13.5353 9.20738 12.9249 8.87504 12.1562C8.42569 11.1168 7.82225 9.74553 7.19479 8.39296C6.56536 7.03615 5.9194 5.7148 5.38415 4.76769C5.21755 4.47291 5.06817 4.22609 4.93882 4.03085C4.91385 4.0948 4.88902 4.16525 4.86458 4.24241C4.7231 4.68907 4.62342 5.26671 4.55346 5.88985C4.48417 6.50695 4.44727 7.13698 4.42123 7.67901C4.41537 7.80084 4.40998 7.92119 4.40478 8.0374C4.38794 8.41359 4.37303 8.7465 4.3505 8.94643C2.89367 21.874 2.22871 35.0025 1.7495 48.0276C1.73427 48.4415 1.38637 48.7647 0.972435 48.7495C0.558502 48.7343 0.235288 48.3864 0.250517 47.9724C0.730085 34.9376 1.39661 21.7636 2.85994 8.77845C2.87631 8.63321 2.88767 8.38062 2.90351 8.02864C2.90925 7.90103 2.91559 7.76036 2.92295 7.60701C2.94941 7.05651 2.98808 6.38819 3.06282 5.72249C3.13689 5.06282 3.24971 4.37319 3.4346 3.78946C3.60433 3.25363 3.89566 2.60104 4.46659 2.28174C4.9169 2.0299 5.32618 2.26977 5.46021 2.36313C5.62929 2.48091 5.77536 2.64319 5.89298 2.7906C6.13761 3.09721 6.41014 3.53442 6.69003 4.02968C7.25598 5.0311 7.92243 6.39705 8.5555 7.76172C9.19054 9.13063 9.79968 10.515 10.2519 11.5609C10.4781 12.0842 10.6653 12.5233 10.7971 12.8343C10.9359 13.1616 11.0017 13.3188 11.0001 13.3153C12.4141 16.3912 13.9593 19.4643 15.5203 22.5689C15.5914 22.7103 15.6626 22.8518 15.7337 22.9933C17.01 21.5532 18.1763 19.9823 19.2328 18.1971C19.2989 12.8496 19.8405 7.36032 21.8742 2.39966C21.9218 2.28365 21.9682 2.16948 22.0133 2.05874C22.1276 1.77781 22.2329 1.51886 22.3249 1.30735C22.3895 1.15851 22.4544 1.01725 22.5178 0.896847C22.5723 0.793534 22.6587 0.639924 22.779 0.516511C22.8366 0.45737 22.966 0.337203 23.1676 0.280336C23.4235 0.208169 23.6901 0.267333 23.8901 0.429103C24.0481 0.556874 24.1209 0.712857 24.1526 0.790813C24.1894 0.881267 24.2113 0.970804 24.2257 1.04415ZM22.7812 4.23286C22.7176 8.06865 22.3857 11.6666 20.8316 15.1355C21.0335 11.3839 21.5673 7.68178 22.7812 4.23286ZM19.236 20.9654C18.3675 22.2142 17.4399 23.3588 16.456 24.4318C16.9614 25.4403 17.466 26.4529 17.966 27.4707C18.6138 28.789 19.2524 30.1137 19.8722 31.4451C19.4364 28.606 19.3565 25.8667 19.3164 24.494C19.3154 24.4595 19.3144 24.4259 19.3135 24.3932C19.2804 23.2678 19.251 22.1228 19.236 20.9654ZM19.8095 34.9462C18.8106 32.6651 17.7318 30.3956 16.6198 28.1321C16.2021 27.2821 15.7793 26.4318 15.3541 25.5817C12.7965 28.1393 9.8941 30.3237 6.68925 32.6376C6.82663 32.6033 6.96431 32.5707 7.10124 32.5405C11.5898 31.5521 16.1966 32.4076 19.8095 34.9462Z" fill="white"/>
</svg>
