<svg width="34" height="22" viewBox="0 0 34 22" fill="none" xmlns="http://www.w3.org/2000/svg">
<path fill-rule="evenodd" clip-rule="evenodd" d="M0 20.6127V1.1C0 0.768629 0.267364 0.5 0.597539 0.500001L10.2296 0.5C10.5949 0.499999 14.7798 1.16666 15.2116 5.43332C15.478 8.06665 14.348 9.29999 14.348 9.29999C14.348 9.29999 17.7357 11.2333 17.0383 15.9C16.4056 20.1333 12.2556 21.1793 11.7574 21.2C8.40232 21.3391 2.45458 21.2459 0.581574 21.2114C0.256453 21.2053 0 20.9391 0 20.6127ZM33.4333 14.2333H22.2195C22.2195 14.2333 22.8505 17.5466 26.0058 17.6667C27.3845 17.7191 28.628 16.7539 28.8575 16.5651C28.8824 16.5447 28.913 16.5333 28.9451 16.5333H33.034C33.1706 16.5333 33.2647 16.6645 33.2105 16.7904C32.772 17.8093 30.846 21.5094 26.0058 21.5C19.33 21.487 18.2339 14.9 18.2339 14.2333C18.2339 14.2185 18.2335 14.1955 18.2329 14.1648C18.2152 13.2275 18.0625 5.13334 26.0058 5.13334C33.5298 5.13334 34.0197 11.7336 33.9994 13.6919C33.9962 14.0012 33.7415 14.2333 33.4333 14.2333ZM22.3191 1.33335H29.4599C29.7167 1.33335 29.9249 1.54228 29.9249 1.80001V3.70001C29.9249 3.95774 29.7167 4.16668 29.4599 4.16668H22.3191C22.0623 4.16668 21.8542 3.95774 21.8542 3.70001V1.80001C21.8542 1.54228 22.0623 1.33335 22.3191 1.33335ZM3.85271 8.29999V4.43333H9.49892C9.49892 4.43333 11.4585 4.43333 11.4585 6.39999C11.4585 8.29999 9.49892 8.29999 9.49892 8.29999H3.85271ZM3.85271 17.6V12.1H10.4621C10.4621 12.1 13.393 11.8659 13.3184 14.9333C13.252 17.6666 10.4621 17.6 10.4621 17.6H3.85271ZM22.7841 11.1H29.4599C29.4599 11.1 28.53 9.29024 26.3379 9.16665C23.9134 9.02996 22.7841 11.1 22.7841 11.1Z" fill="#EDF2EF"/>
</svg>
