<svg width="38" height="38" viewBox="0 0 38 38" fill="none" xmlns="http://www.w3.org/2000/svg">
<path fill-rule="evenodd" clip-rule="evenodd" d="M0 4C0 1.79086 1.79086 0 4 0H34C36.2091 0 38 1.79086 38 4V34C38 36.2091 36.2091 38 34 38H4C1.79086 38 0 36.2091 0 34V4ZM22.7961 18.7927C22.7895 21.4374 23.8367 21.9358 27.4726 23.6663L27.5196 23.6886C29.8505 24.798 29.7939 25.2623 29.619 25.7869C29.4195 26.385 27.1347 27.0808 22.7961 25.2623V28.9343C23.6708 29.3423 26.0151 30.1233 28.3943 29.9834C31.3684 29.8086 33.8176 28.2349 33.9926 25.2623C34.1463 22.6511 31.8699 21.3892 30.9585 20.8839C30.8324 20.814 30.7324 20.7586 30.6686 20.7161C30.5249 20.6203 30.1713 20.4852 29.7335 20.318C28.5726 19.8744 26.8198 19.2048 26.8198 18.443C26.8198 17.3938 28.5693 16.8693 30.8436 17.5687L33.1179 18.2681V14.5961C31.8932 14.1299 28.8492 13.3722 26.4699 14.0716C24.0907 14.771 22.8019 16.457 22.7961 18.7927ZM9.67518 29.6337H6.35121C6.15797 29.6337 6.00132 29.4771 6.00132 29.284V9.00074H9.50023C9.60314 9.00074 9.70893 9.00056 9.81735 9.00039L9.81843 9.00038C13.5813 8.99418 20.5218 8.98274 20.5218 15.995C20.5218 22.8493 13.349 23.3389 10.0251 23.164V29.284C10.0251 29.4771 9.86842 29.6337 9.67518 29.6337Z" fill="#F9FFFB"/>
<path fill-rule="evenodd" clip-rule="evenodd" d="M10.2 12.8342V19.4788C10.2909 19.4788 10.3847 19.479 10.4808 19.4793L10.4821 19.4793C12.791 19.4858 16.498 19.4962 16.498 15.995C16.498 12.8476 12.2994 12.8342 10.2 12.8342Z" fill="#F9FFFB"/>
</svg>
