<svg width="35" height="25" viewBox="0 0 35 25" fill="none" xmlns="http://www.w3.org/2000/svg">
<path fill-rule="evenodd" clip-rule="evenodd" d="M0 14.9203C-3.2094e-06 10.6829 2.46848 3.00918 12.8194 3.89148C13.9523 2.55642 17.4702 -0.0904926 22.4787 0.00238131C28.7394 0.118474 35 5.11045 35 12.4243C35 19.564 28.799 24.5247 24.506 24.8462C20.7854 25.1248 13.1772 24.9623 9.83816 24.8462C6.49915 24.7301 0.476999 22.1644 0 14.9203ZM17.6491 5.92309L15.5026 4.58803C16.5162 3.5432 18.8416 2.26618 22.4787 2.26618C26.2394 2.26618 32.7939 5.5329 32.7342 12.4243C32.6746 19.3156 27.0698 22.6984 22.7172 22.7565C19.2351 22.8029 16.7348 21.5375 15.9199 20.899C15.1051 20.2605 9.93754 15.1331 9.65929 14.9203C9.38104 14.7074 8.99149 14.1076 9.65929 13.4111C10.3271 12.7145 11.0307 12.966 11.2692 13.1789C11.5077 13.3917 15.1978 16.9519 18.1857 19.3318C21.1736 21.7117 30.1107 20.3766 30.23 12.4243C30.3092 7.13976 25.2811 4.64608 22.4787 4.64608C20.046 4.64608 18.3248 5.47807 17.6491 5.92309ZM11.9847 20.3186L14.4889 22.7565C4.77002 23.5691 2.74276 18.6352 2.26576 14.9203C1.81112 11.3794 4.05451 8.47713 7.51278 6.6777C10.2794 5.23815 14.3697 6.27137 15.9199 7.54839C17.4702 8.8254 20.6899 12.1921 20.6899 12.1921C20.8688 12.4243 21.0596 13.028 20.3918 13.5852C19.724 14.1424 19.0801 13.8174 18.8416 13.5852C18.8416 13.5852 15.9199 10.9151 13.8927 9.23173C11.8654 7.54839 4.65077 8.30299 4.82964 14.8042C4.94587 19.0284 9.71891 20.7829 11.9847 20.3186Z" fill="#EDF2EF"/>
</svg>
