<svg width="19" height="27" viewBox="0 0 19 27" fill="none" xmlns="http://www.w3.org/2000/svg">
<path fill-rule="evenodd" clip-rule="evenodd" d="M1.54472 1.50632C2.53074 0.53963 3.86393 0 5.25 0H13.75C15.1361 0 16.4693 0.539631 17.4553 1.50632C18.442 2.47366 19 3.78992 19 5.16667C19 6.54341 18.442 7.85967 17.4553 8.82702C17.267 9.01162 17.066 9.18066 16.8544 9.33333C17.066 9.48601 17.267 9.65504 17.4553 9.83965C18.442 10.807 19 12.1233 19 13.5C19 14.8767 18.442 16.193 17.4553 17.1603C16.4693 18.127 15.1361 18.6667 13.75 18.6667C12.5672 18.6667 11.4229 18.2737 10.5 17.5577V21.8333C10.5 23.2101 9.94196 24.5263 8.95527 25.4937C7.96926 26.4604 6.63607 27 5.25 27C3.86393 27 2.53074 26.4604 1.54472 25.4937C0.558034 24.5263 0 23.2101 0 21.8333C0 20.4566 0.558034 19.1403 1.54472 18.173C1.73302 17.9884 1.93399 17.8193 2.14556 17.6667C1.93399 17.514 1.73302 17.345 1.54472 17.1603C0.558034 16.193 0 14.8767 0 13.5C0 12.1233 0.558034 10.807 1.54472 9.83965C1.73302 9.65504 1.93399 9.48601 2.14556 9.33333C1.93399 9.18066 1.73302 9.01162 1.54472 8.82702C0.558034 7.85967 0 6.54341 0 5.16667C0 3.78992 0.558034 2.47366 1.54472 1.50632ZM5.25 8.33333C4.38173 8.33333 3.55291 7.99499 2.94487 7.39887C2.3375 6.80341 2 6.00006 2 5.16667C2 4.33328 2.3375 3.52992 2.94487 2.93446C3.55291 2.33834 4.38173 2 5.25 2H8.5V8.33333H5.25ZM8.5 10.3333H5.25C4.38173 10.3333 3.55291 10.6717 2.94487 11.2678C2.3375 11.8633 2 12.6666 2 13.5C2 14.3334 2.3375 15.1367 2.94487 15.7322C3.55291 16.3283 4.38173 16.6667 5.25 16.6667H8.5V10.3333ZM8.5 18.6667H5.25C4.38173 18.6667 3.55291 19.005 2.94487 19.6011C2.3375 20.1966 2 20.9999 2 21.8333C2 22.6667 2.3375 23.4701 2.94487 24.0655C3.55291 24.6617 4.38173 25 5.25 25C6.11827 25 6.94709 24.6617 7.55513 24.0655C8.1625 23.4701 8.5 22.6667 8.5 21.8333V18.6667ZM13.75 8.33333H10.5V2H13.75C14.6183 2 15.4471 2.33834 16.0551 2.93446C16.6625 3.52992 17 4.33328 17 5.16667C17 6.00006 16.6625 6.80341 16.0551 7.39887C15.4471 7.99499 14.6183 8.33333 13.75 8.33333ZM10.5 13.5C10.5 14.3334 10.8375 15.1367 11.4449 15.7322C12.0529 16.3283 12.8817 16.6667 13.75 16.6667C14.6183 16.6667 15.4471 16.3283 16.0551 15.7322C16.6625 15.1367 17 14.3334 17 13.5C17 12.6666 16.6625 11.8633 16.0551 11.2678C15.4471 10.6717 14.6183 10.3333 13.75 10.3333C12.8817 10.3333 12.0529 10.6717 11.4449 11.2678C10.8375 11.8633 10.5 12.6666 10.5 13.5Z" fill="#EDF2EF"/>
</svg>
